<?xml version="1.0" standalone="no"?>
<!DOCTYPE svg PUBLIC "-//W3C//DTD SVG 20010904//EN"
 "http://www.w3.org/TR/2001/REC-SVG-20010904/DTD/svg10.dtd">
<svg version="1.0" xmlns="http://www.w3.org/2000/svg"
 width="580.000000pt" height="580.000000pt" viewBox="0 0 580.000000 580.000000"
 preserveAspectRatio="xMidYMid meet">
<metadata>
Created by potrace 1.11, written by Peter Selinger 2001-2013
</metadata>
<g transform="translate(0.000000,580.000000) scale(0.100000,-0.100000)"
fill="#000000" stroke="none">
<path d="M3815 5688 c-321 -42 -568 -273 -633 -593 -4 -22 -12 -40 -17 -40 -6
-1 -30 -4 -55 -8 -25 -4 -67 -9 -95 -13 -27 -3 -61 -7 -75 -9 -45 -6 -174 -24
-220 -30 -25 -3 -79 -10 -120 -16 -41 -5 -93 -12 -115 -15 -22 -3 -51 -7 -65
-9 -14 -2 -47 -6 -75 -10 -27 -3 -61 -8 -75 -10 -14 -2 -47 -6 -75 -10 -54 -7
-57 -7 -225 -30 -63 -9 -133 -18 -155 -21 -22 -2 -51 -7 -65 -9 -14 -2 -52 -7
-85 -11 -33 -3 -76 -9 -95 -13 -48 -10 -55 -6 -92 47 -131 193 -358 313 -593
314 -121 0 -220 -22 -329 -76 -151 -74 -264 -189 -335 -337 -40 -85 -39 -81
-58 -164 -13 -59 -19 -217 -9 -265 65 -313 255 -520 550 -597 l66 -18 -4 -565
c-3 -311 -6 -656 -7 -766 l-1 -201 -57 -13 c-223 -49 -419 -215 -509 -433 -30
-71 -35 -89 -51 -188 -17 -102 2 -247 45 -356 190 -479 791 -619 1176 -274 31
28 59 51 63 51 6 0 702 -311 940 -420 33 -15 143 -64 244 -109 245 -109 232
-101 274 -170 71 -113 177 -208 300 -267 l75 -35 258 3 259 3 60 35 c33 18 85
53 116 77 205 155 311 424 271 683 l-13 84 29 41 c33 47 420 616 565 830 l40
61 80 2 c209 4 398 87 532 234 77 85 120 157 158 266 27 79 30 99 31 222 1
150 -11 211 -63 321 -68 141 -185 262 -321 333 -72 38 -188 76 -229 76 -22 0
-30 8 -46 43 -10 23 -45 98 -78 167 -32 69 -76 161 -96 205 -21 44 -55 116
-76 160 -37 78 -93 196 -160 340 -18 39 -55 118 -83 176 l-49 105 43 58 c197
260 194 631 -7 887 -53 66 -51 64 -122 122 -149 121 -356 180 -542 155z m237
-405 c214 -101 280 -361 141 -554 -83 -116 -233 -173 -377 -145 -127 24 -260
159 -284 289 -35 190 74 372 260 433 70 23 184 12 260 -23z m-3009 -482 c132
-64 209 -186 209 -331 2 -331 -398 -497 -630 -263 -112 113 -139 272 -73 417
63 138 194 217 353 212 63 -2 88 -8 141 -35z m2192 -151 c30 -59 31 -70 7 -96
-9 -10 -66 -84 -125 -164 -59 -80 -113 -152 -120 -160 -7 -9 -114 -150 -238
-315 -123 -165 -226 -302 -229 -305 -3 -3 -17 -21 -30 -40 -14 -19 -30 -42
-37 -50 -7 -8 -94 -123 -193 -255 -100 -132 -185 -241 -190 -243 -6 -2 -227
373 -393 668 -10 19 -61 108 -113 197 l-93 162 44 88 c55 107 81 201 84 305 1
35 3 37 44 43 23 4 49 9 57 10 8 1 42 6 75 10 32 4 67 8 76 10 9 2 40 6 70 10
30 3 99 13 154 21 55 8 120 17 145 20 25 3 56 7 70 9 14 2 45 7 70 10 25 3 56
8 70 10 14 2 61 9 105 15 44 6 91 12 105 14 14 3 48 8 75 11 28 4 59 8 70 10
11 1 43 5 70 9 28 4 104 15 170 24 188 27 171 29 200 -28z m360 -363 l60 -32
-4 -1005 c-2 -553 -4 -1198 -5 -1435 -1 -236 -5 -435 -9 -441 -4 -8 -23 -8
-59 -3 -131 21 -345 -30 -457 -110 l-29 -21 -339 592 c-186 325 -351 614 -366
642 -16 28 -46 82 -68 119 -21 38 -39 71 -39 74 0 13 1236 1653 1245 1652 5 0
37 -15 70 -32z m574 -79 c13 -29 55 -118 92 -196 38 -79 69 -145 69 -147 0 -1
33 -72 74 -156 40 -85 85 -179 99 -209 14 -30 50 -108 80 -172 l55 -117 -61
-35 c-34 -19 -84 -53 -110 -75 -45 -37 -58 -51 -122 -126 -37 -44 -101 -180
-120 -255 -9 -36 -18 -103 -20 -150 -7 -213 64 -390 217 -544 l78 -78 -23 -31
c-12 -18 -26 -39 -32 -48 -5 -10 -37 -57 -69 -106 -33 -48 -127 -189 -209
-313 -82 -124 -152 -228 -156 -232 -4 -4 -6 205 -5 465 1 259 3 937 5 1505 3
811 7 1036 17 1044 6 6 12 8 12 5 0 -2 17 1 38 9 58 21 65 18 91 -38z m-2909
-495 c30 -53 67 -117 81 -142 14 -25 104 -183 201 -351 96 -168 190 -332 208
-365 18 -33 40 -71 49 -85 52 -79 66 -49 -165 -357 -115 -153 -225 -299 -245
-325 l-37 -47 -44 32 c-33 26 -108 67 -186 103 -3 2 -3 241 3 834 2 201 4 458
4 571 l1 205 28 11 c15 6 32 11 37 12 6 1 35 -43 65 -96z m3821 -840 c213
-100 282 -365 145 -552 -80 -109 -238 -172 -370 -148 -232 42 -369 314 -264
522 71 139 196 215 349 210 61 -2 89 -8 140 -32z m-3013 -570 c11 -21 113
-200 227 -398 114 -198 219 -380 233 -405 13 -25 28 -49 32 -55 4 -5 21 -35
37 -65 17 -30 63 -111 103 -180 40 -69 86 -150 103 -180 16 -30 33 -58 37 -63
3 -4 -4 -39 -17 -78 -13 -40 -23 -78 -23 -86 0 -8 -6 -13 -12 -10 -44 18 -636
284 -696 313 -40 19 -75 34 -77 34 -4 0 -53 21 -180 80 -33 15 -104 46 -158
70 l-97 43 7 36 c13 60 7 242 -10 303 l-15 58 235 315 c129 173 238 313 243
310 4 -3 17 -22 28 -42z m-1095 -454 c113 -30 221 -135 253 -247 10 -31 17
-88 16 -125 -2 -121 -87 -257 -196 -314 -259 -134 -567 70 -543 361 20 232
241 385 470 325z m2661 -845 c148 -46 256 -193 256 -349 0 -273 -286 -454
-531 -337 -132 63 -214 194 -211 340 2 104 50 209 131 280 90 79 229 105 355
66z"/>
</g>
</svg>
