<?xml version="1.0" standalone="no"?>
<!DOCTYPE svg PUBLIC "-//W3C//DTD SVG 20010904//EN"
 "http://www.w3.org/TR/2001/REC-SVG-20010904/DTD/svg10.dtd">
<svg version="1.0" xmlns="http://www.w3.org/2000/svg"
 width="550.000000pt" height="550.000000pt" viewBox="0 0 550.000000 550.000000"
 preserveAspectRatio="xMidYMid meet">
<metadata>
Created by potrace 1.11, written by Peter Selinger 2001-2013
</metadata>
<g transform="translate(0.000000,550.000000) scale(0.100000,-0.100000)"
fill="#000000" stroke="none">
<path d="M2608 5454 c-2 -1 -41 -5 -88 -8 -47 -3 -101 -8 -120 -11 -19 -3 -48
-7 -65 -10 -16 -3 -48 -7 -70 -10 -188 -28 -480 -124 -701 -230 -825 -398
-1393 -1197 -1509 -2125 -11 -87 -14 -456 -4 -550 34 -335 119 -637 261 -930
57 -117 172 -316 210 -365 4 -5 33 -44 64 -85 291 -387 698 -696 1158 -880
125 -50 325 -111 420 -129 l48 -9 24 54 c38 87 43 123 27 213 -20 120 -206
661 -250 727 -8 13 -34 31 -59 40 -45 17 -53 17 -279 -3 -102 -10 -336 -10
-397 -1 -58 8 -134 41 -166 71 -56 52 -72 112 -77 292 -4 116 -16 160 -58 211
-55 66 -60 105 -22 171 24 39 24 43 7 43 -14 0 -22 14 -34 65 -8 35 -13 84
-11 107 10 123 7 143 -30 181 -23 22 -63 44 -123 65 -110 40 -163 76 -188 126
-17 35 -18 45 -7 85 7 25 83 165 170 311 232 388 224 371 226 489 0 55 -6 141
-15 193 -9 51 -14 109 -13 128 6 74 118 399 186 540 170 353 457 583 868 693
438 118 832 143 1184 73 337 -66 701 -261 946 -505 75 -76 198 -231 238 -301
89 -156 150 -336 166 -490 7 -68 7 -261 0 -315 -31 -227 -72 -371 -157 -554
-282 -607 -320 -887 -198 -1463 39 -185 98 -303 207 -416 6 -6 46 -53 89 -102
42 -50 80 -90 84 -90 8 0 189 187 256 265 196 230 383 554 483 839 32 90 76
240 84 286 3 14 10 43 16 65 6 22 13 56 15 75 3 19 9 64 15 100 33 207 33 499
1 730 -47 338 -169 698 -336 987 -70 120 -211 320 -287 405 -124 140 -167 184
-268 272 -147 128 -150 131 -299 231 -318 213 -743 377 -1085 420 -27 4 -61 8
-75 10 -91 14 -453 29 -462 19z"/>
<path d="M2775 4908 c-86 -24 -94 -155 -12 -194 42 -20 96 -13 122 16 13 14
31 20 64 20 43 0 51 -4 104 -58 l57 -58 0 -314 0 -315 -98 -97 -99 -96 -477
477 -477 477 -114 0 -115 -1 -87 -87 c-59 -59 -96 -88 -111 -88 -63 0 -118
-65 -102 -120 22 -78 86 -111 157 -81 33 13 63 62 63 101 0 14 25 46 67 88 67
65 68 66 129 68 l62 2 499 -499 c274 -274 501 -499 505 -499 5 0 78 71 164
158 l156 157 -1 360 -1 360 -93 93 -92 92 -68 0 c-53 0 -74 5 -96 21 -32 24
-64 29 -106 17z m84 -85 c9 -20 9 -30 -4 -49 -28 -44 -95 -22 -95 31 0 52 77
66 99 18z m-1278 -311 c32 -41 -5 -91 -57 -78 -59 15 -40 111 20 102 11 -1 27
-12 37 -24z"/>
<path d="M2093 4900 c-28 -11 -63 -67 -63 -98 0 -86 110 -136 181 -83 16 12
46 21 73 22 l47 3 231 -231 c192 -192 231 -236 233 -262 8 -92 117 -136 179
-73 38 40 44 91 17 136 -22 35 -32 41 -85 50 -16 3 -30 6 -32 8 -2 2 -114 113
-249 247 l-245 244 -72 0 c-59 -1 -77 3 -95 19 -24 23 -88 32 -120 18z m91
-56 c21 -21 20 -50 -3 -73 -45 -45 -118 22 -76 69 22 24 58 26 79 4z m758
-551 c33 -29 21 -77 -22 -88 -34 -8 -62 15 -62 50 0 48 48 70 84 38z"/>
<path d="M3449 4601 c-47 -19 -79 -61 -79 -106 0 -29 26 -85 39 -85 5 0 9
-120 9 -269 l0 -270 -54 -51 c-30 -28 -58 -49 -64 -45 -18 11 -79 -23 -94 -54
-23 -44 -20 -85 10 -120 62 -74 181 -37 189 60 2 23 20 49 68 98 l65 66 0 286
c0 278 1 288 21 316 37 49 31 116 -13 152 -20 17 -77 30 -97 22z m59 -57 c42
-29 19 -94 -33 -94 -33 0 -60 41 -46 69 10 18 37 40 51 41 3 0 16 -7 28 -16z
m-168 -843 c22 -42 7 -77 -37 -85 -44 -9 -74 52 -43 89 18 22 67 19 80 -4z"/>
<path d="M1843 4458 c-107 -29 -92 -187 19 -204 34 -6 55 -22 129 -96 49 -49
89 -90 89 -91 0 -2 -83 -3 -184 -2 l-184 1 -81 79 c-69 69 -81 85 -81 113 0
25 -9 43 -33 67 -29 29 -39 33 -76 31 -98 -7 -140 -129 -66 -193 22 -20 62
-30 80 -20 2 1 50 -43 105 -98 l100 -100 355 -1 355 0 -37 39 c-21 21 -108
109 -195 195 -95 95 -155 162 -153 172 5 25 -21 77 -48 95 -32 21 -55 24 -94
13z m67 -68 c36 -36 16 -90 -34 -90 -54 0 -72 80 -22 100 31 13 34 12 56 -10z
m-430 -110 c24 -24 25 -38 4 -68 -18 -26 -50 -28 -76 -5 -25 22 -23 59 4 77
30 21 44 20 68 -4z"/>
<path d="M3741 4259 c-17 -17 -31 -38 -32 -47 -3 -42 4 -69 24 -97 19 -27 21
-42 21 -206 l0 -176 -360 -362 c-197 -200 -360 -364 -362 -366 -2 -1 -3 -659
-3 -1460 0 -1353 2 -1459 17 -1476 22 -25 59 -24 84 1 20 20 20 33 20 1163 l0
1142 554 554 553 553 2 111 c1 95 4 113 20 131 61 65 9 176 -81 176 -32 0 -47
-7 -75 -35 -33 -33 -35 -39 -30 -81 3 -28 13 -53 25 -65 18 -16 21 -30 20
-103 l0 -84 -480 -479 c-264 -263 -486 -484 -494 -491 -12 -11 -14 -4 -14 50
l0 63 228 228 c199 199 231 227 258 227 95 0 133 141 52 194 -72 46 -168 -3
-168 -87 0 -18 -45 -69 -181 -206 -100 -99 -184 -181 -188 -181 -3 0 -5 24 -3
52 l4 53 362 365 362 365 -1 200 c-1 193 0 201 22 234 54 80 6 171 -91 171
-25 0 -43 -8 -65 -31z m117 -46 c17 -23 15 -40 -8 -63 -26 -26 -55 -25 -74 2
-20 29 -20 47 1 70 20 22 60 17 81 -9z m374 -380 c34 -31 13 -93 -33 -93 -28
0 -59 35 -54 62 9 44 54 61 87 31z m-568 -559 c38 -37 3 -101 -48 -88 -34 8
-49 35 -37 67 15 38 58 49 85 21z"/>
<path d="M1204 4088 c-39 -10 -64 -37 -74 -82 -14 -63 36 -125 100 -126 18 0
53 -28 128 -102 l102 -103 476 -1 475 0 264 -264 264 -264 87 87 c47 48 89 85
93 83 17 -11 72 26 87 57 46 95 -52 191 -145 142 -37 -18 -64 -73 -56 -108 5
-17 -3 -31 -29 -56 -20 -19 -39 -32 -43 -28 -5 4 -113 112 -241 239 l-232 232
-475 1 -475 0 -85 85 c-71 71 -85 90 -85 117 0 22 -9 41 -30 61 -33 34 -62 42
-106 30z m67 -54 c29 -35 16 -78 -26 -86 -52 -10 -86 49 -49 86 20 21 58 20
75 0z m1882 -575 c26 -36 -4 -91 -46 -83 -44 8 -59 43 -37 85 15 26 64 25 83
-2z"/>
<path d="M1203 3765 c-41 -17 -63 -51 -63 -98 0 -52 52 -107 101 -107 26 0 43
-11 88 -58 l56 -57 455 1 455 1 222 -221 223 -221 0 -74 0 -75 -205 205 -204
205 -238 -1 c-131 0 -246 3 -255 7 -12 6 -18 20 -18 41 0 112 -161 139 -205
35 -12 -30 -10 -52 10 -101 9 -22 56 -47 88 -47 13 0 34 -11 47 -25 l23 -25
256 0 256 -1 225 -225 225 -225 1 -1292 c1 -711 2 -1300 3 -1309 3 -42 58 -62
97 -34 19 14 19 41 19 1497 l1 1483 -258 258 -258 258 -457 0 -458 0 -39 40
c-26 27 -41 51 -42 71 -6 77 -81 123 -151 94z m101 -88 c7 -30 -19 -67 -49
-67 -51 0 -75 65 -34 94 27 19 75 4 83 -27z m447 -337 c20 -11 26 -54 10 -79
-5 -8 -24 -14 -41 -14 -36 0 -50 15 -50 55 0 40 40 59 81 38z"/>
<path d="M4245 3101 c-34 -15 -56 -47 -62 -90 -4 -25 -15 -49 -33 -66 -27 -26
-31 -26 -151 -26 l-124 1 -282 -281 -283 -280 0 -1138 c0 -1090 1 -1139 18
-1154 26 -24 68 -21 86 5 14 20 16 144 16 1128 l0 1105 248 247 247 248 122
-1 122 -1 45 46 c35 35 53 46 77 46 22 0 41 10 65 34 29 29 34 41 34 79 0 61
-30 97 -85 102 -22 3 -49 1 -60 -4z m81 -62 c17 -14 18 -61 2 -77 -39 -39
-112 12 -87 60 7 13 17 26 22 30 13 8 45 2 63 -13z"/>
<path d="M3940 2468 c-14 -5 -33 -16 -42 -25 -13 -11 -39 -16 -93 -16 l-74 -1
-67 -67 -67 -67 0 -1101 c1 -1041 2 -1103 18 -1121 23 -25 59 -26 84 -1 18 18
19 53 19 1096 l0 1078 31 30 c40 41 108 45 159 10 107 -72 230 50 149 150 -25
32 -81 48 -117 35z m78 -74 c38 -38 -15 -104 -65 -81 -13 5 -23 13 -23 16 0 3
-3 16 -6 27 -13 47 57 75 94 38z"/>
</g>
</svg>
